<svg width="102" height="18" viewBox="0 0 102 18" fill="none" xmlns="http://www.w3.org/2000/svg">
<path d="M7.66627 3.20103C7.91937 2.42209 9.02137 2.42209 9.27446 3.20103L10.1788 5.98416C10.2919 6.33252 10.6166 6.56837 10.9829 6.56837H13.9092C14.7282 6.56837 15.0688 7.61644 14.4062 8.09785L12.0387 9.81792C11.7424 10.0332 11.6184 10.4148 11.7316 10.7632L12.6358 13.5463C12.8889 14.3253 11.9974 14.973 11.3348 14.4916L8.96733 12.7715C8.671 12.5562 8.26974 12.5562 7.97341 12.7715L5.60594 14.4916C4.94333 14.973 4.05179 14.3253 4.30489 13.5463L5.20918 10.7632C5.32237 10.4148 5.19837 10.0332 4.90205 9.81792L2.53457 8.09785C1.87197 7.61644 2.2125 6.56837 3.03153 6.56837H5.95789C6.32417 6.56837 6.64879 6.33252 6.76198 5.98416L7.66627 3.20103Z" fill="#F8C75A"/>
<path d="M28.803 3.20106C29.0561 2.42212 30.1581 2.42212 30.4112 3.20106L31.3155 5.98419C31.4287 6.33255 31.7533 6.5684 32.1196 6.5684H35.0459C35.865 6.5684 36.2055 7.61647 35.5429 8.09788L33.1754 9.81795C32.8791 10.0332 32.7551 10.4149 32.8683 10.7632L33.7726 13.5463C34.0257 14.3253 33.1341 14.973 32.4715 14.4916L30.104 12.7715C29.8077 12.5563 29.4065 12.5563 29.1101 12.7715L26.7427 14.4916C26.08 14.973 25.1885 14.3253 25.4416 13.5463L26.3459 10.7632C26.4591 10.4149 26.3351 10.0332 26.0388 9.81795L23.6713 8.09788C23.0087 7.61647 23.3492 6.5684 24.1683 6.5684H27.0946C27.4609 6.5684 27.7855 6.33255 27.8987 5.98419L28.803 3.20106Z" fill="#F8C75A"/>
<path d="M49.9407 3.20106C50.1938 2.42212 51.2958 2.42212 51.5489 3.20106L52.4532 5.98419C52.5664 6.33255 52.891 6.5684 53.2573 6.5684H56.1836C57.0026 6.5684 57.3432 7.61647 56.6806 8.09788L54.3131 9.81795C54.0168 10.0332 53.8928 10.4149 54.006 10.7632L54.9103 13.5463C55.1634 14.3253 54.2718 14.973 53.6092 14.4916L51.2417 12.7715C50.9454 12.5563 50.5442 12.5563 50.2478 12.7715L47.8804 14.4916C47.2177 14.973 46.3262 14.3253 46.5793 13.5463L47.4836 10.7632C47.5968 10.4149 47.4728 10.0332 47.1765 9.81795L44.809 8.09788C44.1464 7.61647 44.4869 6.5684 45.3059 6.5684H48.2323C48.5986 6.5684 48.9232 6.33255 49.0364 5.98419L49.9407 3.20106Z" fill="#F8C75A"/>
<path d="M71.4795 3.3317C71.606 2.94223 72.157 2.94223 72.2835 3.3317L73.1878 6.11483C73.3576 6.63736 73.8446 6.99114 74.394 6.99114H77.3203C77.7299 6.99114 77.9001 7.51517 77.5688 7.75588L75.2013 9.47595C74.7569 9.79889 74.5709 10.3713 74.7406 10.8938L75.6449 13.677C75.7715 14.0665 75.3257 14.3903 74.9944 14.1496L72.6269 12.4295C72.1824 12.1066 71.5806 12.1066 71.1361 12.4295L68.7686 14.1496C68.4373 14.3903 67.9915 14.0665 68.1181 13.677L69.0224 10.8939C69.1921 10.3713 69.0061 9.79889 68.5617 9.47595L68.3132 9.81795L68.5617 9.47595L66.1942 7.75588C65.8629 7.51517 66.0331 6.99114 66.4427 6.99114H69.369C69.9184 6.99114 70.4054 6.63736 70.5752 6.11483L71.4795 3.3317Z" stroke="#CCCCCC" stroke-width="0.845474"/>
<path d="M92.6162 3.3317C92.7427 2.94223 93.2937 2.94223 93.4203 3.3317L94.3246 6.11483C94.4943 6.63736 94.9813 6.99114 95.5307 6.99114H98.4571C98.8666 6.99114 99.0368 7.51517 98.7055 7.75588L96.3381 9.47595C95.8936 9.79889 95.7076 10.3713 95.8774 10.8938L96.7817 13.677C96.9082 14.0665 96.4624 14.3903 96.1311 14.1496L93.7637 12.4295C93.3192 12.1066 92.7173 12.1066 92.2728 12.4295L89.9053 14.1496C89.574 14.3903 89.1282 14.0665 89.2548 13.677L90.1591 10.8939C90.3289 10.3713 90.1429 9.79889 89.6984 9.47595L89.4499 9.81795L89.6984 9.47595L87.3309 7.75588C86.9996 7.51517 87.1699 6.99114 87.5794 6.99114H90.5057C91.0552 6.99114 91.5421 6.63736 91.7119 6.11483L92.6162 3.3317Z" stroke="#CCCCCC" stroke-width="0.845474"/>
</svg>
