<svg width="102" height="18" viewBox="0 0 102 18" fill="none" xmlns="http://www.w3.org/2000/svg">
<path d="M8.18776 3.20106C8.44085 2.42212 9.54285 2.42212 9.79595 3.20106L10.7002 5.98419C10.8134 6.33255 11.1381 6.5684 11.5043 6.5684H14.4307C15.2497 6.5684 15.5903 7.61647 14.9276 8.09788L12.5602 9.81795C12.2638 10.0332 12.1399 10.4149 12.253 10.7632L13.1573 13.5463C13.4104 14.3253 12.5189 14.973 11.8563 14.4916L9.48881 12.7715C9.19248 12.5563 8.79122 12.5563 8.4949 12.7715L6.12742 14.4916C5.46481 14.973 4.57328 14.3253 4.82637 13.5463L5.73067 10.7632C5.84385 10.4149 5.71986 10.0332 5.42353 9.81795L3.05606 8.09788C2.39345 7.61647 2.73399 6.5684 3.55302 6.5684H6.47937C6.84565 6.5684 7.17028 6.33255 7.28347 5.98419L8.18776 3.20106Z" fill="#F8C75A"/>
<path d="M29.3245 3.20106C29.5776 2.42212 30.6796 2.42212 30.9327 3.20106L31.837 5.98419C31.9501 6.33255 32.2748 6.5684 32.6411 6.5684H35.5674C36.3864 6.5684 36.727 7.61647 36.0644 8.09788L33.6969 9.81795C33.4006 10.0332 33.2766 10.4149 33.3898 10.7632L34.2941 13.5463C34.5471 14.3253 33.6556 14.973 32.993 14.4916L30.6255 12.7715C30.3292 12.5563 29.9279 12.5563 29.6316 12.7715L27.2641 14.4916C26.6015 14.973 25.71 14.3253 25.9631 13.5463L26.8674 10.7632C26.9806 10.4149 26.8566 10.0332 26.5602 9.81795L24.1928 8.09788C23.5302 7.61647 23.8707 6.5684 24.6897 6.5684H27.6161C27.9824 6.5684 28.307 6.33255 28.4202 5.98419L29.3245 3.20106Z" fill="#F8C75A"/>
<path d="M50.4612 3.20106C50.7143 2.42212 51.8163 2.42212 52.0694 3.20106L52.9737 5.98419C53.0869 6.33255 53.4115 6.5684 53.7778 6.5684H56.7041C57.5232 6.5684 57.8637 7.61647 57.2011 8.09788L54.8336 9.81795C54.5373 10.0332 54.4133 10.4149 54.5265 10.7632L55.4308 13.5463C55.6839 14.3253 54.7923 14.973 54.1297 14.4916L51.7622 12.7715C51.4659 12.5563 51.0647 12.5563 50.7683 12.7715L48.4009 14.4916C47.7383 14.973 46.8467 14.3253 47.0998 13.5463L48.0041 10.7632C48.1173 10.4149 47.9933 10.0332 47.697 9.81795L45.3295 8.09788C44.6669 7.61647 45.0074 6.5684 45.8265 6.5684H48.7528C49.1191 6.5684 49.4437 6.33255 49.5569 5.98419L50.4612 3.20106Z" fill="#F8C75A"/>
<path d="M71.5979 3.20106C71.851 2.42212 72.953 2.42212 73.2061 3.20106L74.1104 5.98419C74.2236 6.33255 74.5482 6.5684 74.9145 6.5684H77.8408C78.6599 6.5684 79.0004 7.61647 78.3378 8.09788L75.9703 9.81795C75.674 10.0332 75.55 10.4149 75.6632 10.7632L76.5675 13.5463C76.8206 14.3253 75.929 14.973 75.2664 14.4916L72.899 12.7715C72.6026 12.5563 72.2014 12.5563 71.9051 12.7715L69.5376 14.4916C68.875 14.973 67.9834 14.3253 68.2365 13.5463L69.1408 10.7632C69.254 10.4149 69.13 10.0332 68.8337 9.81795L66.4662 8.09788C65.8036 7.61647 66.1441 6.5684 66.9632 6.5684H69.8895C70.2558 6.5684 70.5804 6.33255 70.6936 5.98419L71.5979 3.20106Z" fill="#F8C75A"/>
<path d="M92.7356 3.20106C92.9887 2.42212 94.0907 2.42212 94.3438 3.20106L95.2481 5.98419C95.3613 6.33255 95.6859 6.5684 96.0522 6.5684H98.9785C99.7976 6.5684 100.138 7.61647 99.4755 8.09788L97.108 9.81795C96.8117 10.0332 96.6877 10.4149 96.8009 10.7632L97.7052 13.5463C97.9583 14.3253 97.0667 14.973 96.4041 14.4916L94.0367 12.7715C93.7403 12.5563 93.3391 12.5563 93.0427 12.7715L90.6753 14.4916C90.0127 14.973 89.1211 14.3253 89.3742 13.5463L90.2785 10.7632C90.3917 10.4149 90.2677 10.0332 89.9714 9.81795L87.6039 8.09788C86.9413 7.61647 87.2818 6.5684 88.1009 6.5684H91.0272C91.3935 6.5684 91.7181 6.33255 91.8313 5.98419L92.7356 3.20106Z" fill="#F8C75A"/>
</svg>
