<svg width="41" height="31" viewBox="0 0 41 31" fill="none" xmlns="http://www.w3.org/2000/svg">
<path d="M10.08 30.12C8.16 30.12 6.44 29.64 4.92 28.68C3.48 27.72 2.36 26.4 1.56 24.72C0.76 22.96 0.36 20.92 0.36 18.6C0.36 16.6 0.68 14.72 1.32 12.96C1.96 11.12 2.88 9.44 4.08 7.92C5.36 6.31999 6.88 4.87999 8.64 3.6C10.48 2.24 12.56 1.08 14.88 0.119998L18.12 4.43999C15.48 5.79999 13.36 7.32 11.76 9C10.16 10.68 9.36 12.28 9.36 13.8C9.36 14.84 9.64 15.76 10.2 16.56C10.76 17.36 11.56 18.2 12.6 19.08C13.88 20.04 14.76 20.96 15.24 21.84C15.8 22.72 16.08 23.64 16.08 24.6C16.08 26.28 15.52 27.64 14.4 28.68C13.36 29.64 11.92 30.12 10.08 30.12ZM32.4 30.12C30.48 30.12 28.76 29.64 27.24 28.68C25.8 27.72 24.68 26.4 23.88 24.72C23.08 22.96 22.68 20.92 22.68 18.6C22.68 16.6 23 14.72 23.64 12.96C24.28 11.12 25.2 9.44 26.4 7.92C27.68 6.31999 29.2 4.87999 30.96 3.6C32.8 2.24 34.88 1.08 37.2 0.119998L40.44 4.43999C37.8 5.79999 35.68 7.32 34.08 9C32.48 10.68 31.68 12.28 31.68 13.8C31.68 14.84 31.96 15.76 32.52 16.56C33.08 17.36 33.88 18.2 34.92 19.08C36.2 20.04 37.08 20.96 37.56 21.84C38.12 22.72 38.4 23.64 38.4 24.6C38.4 26.28 37.84 27.64 36.72 28.68C35.68 29.64 34.24 30.12 32.4 30.12Z" fill="#1D1D1D"/>
</svg>
