<svg width="39" height="35" viewBox="0 0 39 35" fill="none" xmlns="http://www.w3.org/2000/svg">
<path d="M2.5 7.5H4.67501C6.02501 7.5 7.0875 8.6625 6.975 10L5.9375 22.45C5.7625 24.4875 7.37499 26.2375 9.42499 26.2375H22.7375C24.5375 26.2375 26.1125 24.7625 26.25 22.975L26.925 13.6C27.075 11.525 25.5 9.83749 23.4125 9.83749H7.27501" stroke="#0D0D0D" stroke-width="1.875" stroke-miterlimit="10" stroke-linecap="round" stroke-linejoin="round"/>
<path opacity="0.4" d="M20.3125 32.5C21.1754 32.5 21.875 31.8004 21.875 30.9375C21.875 30.0746 21.1754 29.375 20.3125 29.375C19.4496 29.375 18.75 30.0746 18.75 30.9375C18.75 31.8004 19.4496 32.5 20.3125 32.5Z" stroke="#0D0D0D" stroke-width="1.875" stroke-miterlimit="10" stroke-linecap="round" stroke-linejoin="round"/>
<path opacity="0.4" d="M10.3125 32.5C11.1754 32.5 11.875 31.8004 11.875 30.9375C11.875 30.0746 11.1754 29.375 10.3125 29.375C9.44956 29.375 8.75 30.0746 8.75 30.9375C8.75 31.8004 9.44956 32.5 10.3125 32.5Z" stroke="#0D0D0D" stroke-width="1.875" stroke-miterlimit="10" stroke-linecap="round" stroke-linejoin="round"/>
<path opacity="0.4" d="M11.25 15H26.25" stroke="#0D0D0D" stroke-width="1.875" stroke-miterlimit="10" stroke-linecap="round" stroke-linejoin="round"/>
<circle cx="28" cy="11" r="9.5" fill="#EE7B7B" stroke="white" stroke-width="3"/>
</svg>
